<svg t="1662016148811" class="icon" viewBox="0 0 1024 1024" version="1.1" xmlns="http://www.w3.org/2000/svg" p-id="12274" width="200" height="200">
  <path d="M736 219.9v13.54a112.12 112.12 0 0 0-0.84-13.54z" fill="#AB8482" p-id="12275"></path>
  <path d="M270.74 351.08V212.87c0-44.24 27.85-80.23 62.08-80.23s62.14 36 62.14 80.23v138.21z" fill="#F9DAD9" p-id="12276"></path>
  <path d="M332.82 137.64c31.57 0 57.14 33.69 57.14 75.23v133.21H275.74V212.87c0-41.54 25.56-75.23 57.08-75.23m0-10c-18.44 0-35.61 9.23-48.33 26-12.09 15.94-18.75 37-18.75 59.24v143.2H400V212.87c0-22.26-6.67-43.3-18.77-59.24-12.72-16.76-29.9-26-48.37-26z" fill="#993C4E" p-id="12277"></path>
  <path d="M390.2 346.08h-18.91V212.87c0-37.29-20.6-68.29-47.68-74.2a42.49 42.49 0 0 1 9.45-1c31.57 0 57.14 33.69 57.14 75.23z" fill="#D6A494" p-id="12278"></path>
  <path d="M252.19 287.75m22.25 0l117.04 0q22.25 0 22.25 22.25l0 199.1q0 22.25-22.25 22.25l-117.04 0q-22.25 0-22.25-22.25l0-199.1q0-22.25 22.25-22.25Z" fill="#A8E5DB" p-id="12279"></path>
  <path d="M391.48 292.75A17.31 17.31 0 0 1 408.74 310v199.1a17.31 17.31 0 0 1-17.26 17.25h-117a17.31 17.31 0 0 1-17.26-17.25V310a17.31 17.31 0 0 1 17.26-17.25h117m0-10h-117A27.28 27.28 0 0 0 247.19 310v199.1a27.29 27.29 0 0 0 27.26 27.25h117a27.29 27.29 0 0 0 27.26-27.25V310a27.28 27.28 0 0 0-27.26-27.25z" fill="#993C4E" p-id="12280"></path>
  <path d="M408.73 309.5v200.1c0 9.21-8 16.75-17.77 16.75h-35.55c9.77 0 17.77-7.54 17.77-16.75V309.5c0-9.21-8-16.75-17.77-16.75H391c9.74 0 17.73 7.54 17.73 16.75z" fill="#79D1C0" p-id="12281"></path>
  <path d="M233.04 504.17m24.61 0l150.62 0q24.61 0 24.61 24.61l0 65.39q0 24.61-24.61 24.61l-150.62 0q-24.61 0-24.61-24.61l0-65.39q0-24.61 24.61-24.61Z" fill="#F4BEC9" p-id="12282"></path>
  <path d="M408.27 509.17a19.67 19.67 0 0 1 19.61 19.61v65.39a19.66 19.66 0 0 1-19.61 19.61H257.66A19.67 19.67 0 0 1 238 594.17v-65.39a19.68 19.68 0 0 1 19.62-19.61h150.65m0-10H257.66A29.65 29.65 0 0 0 228 528.78v65.39a29.65 29.65 0 0 0 29.62 29.61h150.65a29.64 29.64 0 0 0 29.61-29.61v-65.39a29.65 29.65 0 0 0-29.61-29.61z" fill="#993C4E" p-id="12283"></path>
  <path d="M427.89 529.17v64.61c0 11-8.66 20-19.23 20h-25V509.17h25c10.57 0 19.23 9 19.23 20z" fill="#E88B9D" p-id="12284"></path>
  <path d="M216.98 559.28m25 0l181.96 0q25 0 25 25l0 307.85q0 25-25 25l-181.96 0q-25 0-25-25l0-307.85q0-25 25-25Z" fill="#F4BEC9" p-id="12285"></path>
  <path d="M424 564.28a20.06 20.06 0 0 1 20 20v307.85a20.06 20.06 0 0 1-20 20H242a20.06 20.06 0 0 1-20-20V584.28a20.06 20.06 0 0 1 20-20h182m0-10H242a30 30 0 0 0-30 30v307.85a30 30 0 0 0 30 30h182a30 30 0 0 0 30-30V584.28a30 30 0 0 0-30-30z" fill="#993C4E" p-id="12286"></path>
  <path d="M443.94 584.28v307.85a20.06 20.06 0 0 1-20 20h-50a20.06 20.06 0 0 0 20-20V584.28a20.06 20.06 0 0 0-20-20h50a20.06 20.06 0 0 1 20 20z" fill="#E88B9D" p-id="12287"></path>
  <path d="M607 917.15a36.67 36.67 0 0 1-36.63-36.62V244.12a114.75 114.75 0 0 1 114.56-114.61 120.42 120.42 0 0 1 120.28 120.28v630.74a36.67 36.67 0 0 1-36.63 36.62z" fill="#F4BEC9" p-id="12288"></path>
  <path d="M684.93 134.51c63.4 0 115.28 51.88 115.28 115.28v630.74a31.72 31.72 0 0 1-31.63 31.62H607a31.72 31.72 0 0 1-31.63-31.62V244.12c0-60.28 49.33-109.61 109.61-109.61m0-10a119.94 119.94 0 0 0-119.66 119.61v636.41A41.67 41.67 0 0 0 607 922.15h161.58a41.67 41.67 0 0 0 41.63-41.62V249.79a125.61 125.61 0 0 0-125.28-125.28z" fill="#993C4E" p-id="12289"></path>
  <path d="M800.21 249.79v630.74a31.72 31.72 0 0 1-31.63 31.62h-70a31.72 31.72 0 0 0 31.63-31.62V249.79a115.77 115.77 0 0 0-79.84-109.66 108.46 108.46 0 0 1 34.56-5.62 115.61 115.61 0 0 1 115.28 115.28z" fill="#E88B9D" p-id="12290"></path>
  <path d="M616.5 525.4a10 10 0 0 1-10-10V366.71a10 10 0 0 1 20 0V515.4a10 10 0 0 1-10 10zM616.5 328.34a10 10 0 0 1-10-10v-41.59a10 10 0 0 1 20 0v41.59a10 10 0 0 1-10 10z" fill="#FFFFFF" p-id="12291"></path>
</svg>